<?xml version="1.0" standalone="no"?>
<!DOCTYPE svg PUBLIC "-//W3C//DTD SVG 20010904//EN"
 "http://www.w3.org/TR/2001/REC-SVG-20010904/DTD/svg10.dtd">
<svg version="1.0" xmlns="http://www.w3.org/2000/svg"
 width="64.000000pt" height="39.000000pt" viewBox="0 0 64.000000 39.000000"
 preserveAspectRatio="xMidYMid meet">

<g transform="translate(0.000000,39.000000) scale(0.100000,-0.100000)"
fill="#000000" stroke="none">
<path d="M172 368 c-12 -16 -16 -86 -14 -235 2 -104 3 -112 23 -118 13 -5 27
-1 37 8 14 14 14 20 -1 59 -23 58 -22 78 3 78 11 0 20 5 20 10 0 6 -11 10 -25
10 -37 0 -30 20 8 21 l32 2 -35 7 c-31 6 -32 8 -8 9 40 2 45 21 6 22 l-33 2
35 7 35 7 -35 3 c-32 3 -32 3 -7 7 15 2 27 8 27 13 0 5 -12 11 -27 13 -25 4
-25 4 7 7 l35 3 -35 7 c-31 7 -32 7 -7 9 15 0 27 5 27 10 0 5 -12 12 -27 14
l-28 4 28 2 c30 1 36 15 11 25 -24 9 -41 7 -52 -6z"/>
<path d="M290 220 c0 -21 70 -117 93 -127 14 -7 31 -24 39 -40 8 -16 23 -29
36 -31 20 -3 23 0 20 20 -2 16 -10 23 -24 23 -30 1 -75 42 -119 108 -38 58
-45 65 -45 47z m171 -173 c-1 -12 -15 -9 -19 4 -3 6 1 10 8 8 6 -3 11 -8 11
-12z"/>
<path d="M426 180 c-38 -53 -41 -60 -27 -60 11 0 75 99 69 106 -3 3 -22 -18
-42 -46z"/>
<path d="M338 78 c-3 -7 -15 -13 -29 -13 -17 0 -25 -6 -27 -22 -3 -23 13 -30
33 -15 17 12 46 62 36 62 -5 0 -11 -6 -13 -12z m-28 -33 c0 -8 -4 -15 -10 -15
-5 0 -10 7 -10 15 0 8 5 15 10 15 6 0 10 -7 10 -15z"/>
</g>
</svg>
