<?xml version="1.0" standalone="no"?>
<!DOCTYPE svg PUBLIC "-//W3C//DTD SVG 20010904//EN"
 "http://www.w3.org/TR/2001/REC-SVG-20010904/DTD/svg10.dtd">
<svg version="1.0" xmlns="http://www.w3.org/2000/svg"
 width="64.000000pt" height="39.000000pt" viewBox="0 0 64.000000 39.000000"
 preserveAspectRatio="xMidYMid meet">

<g transform="translate(0.000000,39.000000) scale(0.100000,-0.100000)"
fill="#000000" stroke="none">
<path d="M400 359 c-19 -12 -86 -73 -147 -136 -87 -88 -113 -121 -113 -142 0
-32 8 -44 37 -60 21 -10 23 -8 33 28 11 43 68 101 99 101 29 0 32 12 9 37 -26
28 -5 32 26 6 15 -13 14 -10 -3 10 -14 15 -20 27 -14 27 5 0 18 -9 28 -20 10
-11 21 -18 23 -15 3 3 -5 16 -18 30 -13 14 -19 25 -13 25 5 0 18 -9 27 -19 14
-16 21 -17 31 -8 11 10 9 16 -8 34 -11 13 -18 25 -15 28 2 3 13 -4 23 -15 10
-11 23 -20 28 -20 6 0 0 11 -13 25 -13 14 -21 27 -18 30 2 3 13 -4 22 -14 14
-16 21 -17 31 -8 11 10 9 16 -8 35 -16 18 -17 22 -5 22 9 0 21 -7 28 -15 14
-17 30 -20 30 -5 0 13 -45 60 -57 60 -4 0 -24 -9 -43 -21z m41 -56 c13 -16 12
-17 -3 -4 -17 13 -22 21 -14 21 2 0 10 -8 17 -17z m-41 -63 c0 -15 -5 -12 -26
11 -19 22 -19 22 4 10 12 -6 22 -16 22 -21z"/>
</g>
</svg>
