<?xml version="1.0" standalone="no"?>
<!DOCTYPE svg PUBLIC "-//W3C//DTD SVG 20010904//EN"
 "http://www.w3.org/TR/2001/REC-SVG-20010904/DTD/svg10.dtd">
<svg version="1.0" xmlns="http://www.w3.org/2000/svg"
 width="62.000000pt" height="62.000000pt" viewBox="0 0 62.000000 62.000000"
 preserveAspectRatio="xMidYMid meet">

<g transform="translate(0.000000,62.000000) scale(0.100000,-0.100000)"
fill="#000000" stroke="none">
<path d="M177 567 c-12 -8 -19 -28 -20 -56 -2 -43 -1 -45 30 -52 48 -10 80
-35 103 -79 25 -50 25 -90 0 -140 -15 -30 -20 -59 -20 -120 l0 -80 138 0 c122
0 141 2 155 18 15 16 17 45 17 195 l0 177 -63 0 c-36 0 -68 5 -75 12 -7 7 -12
39 -12 75 l0 63 -118 0 c-79 0 -124 -4 -135 -13z m208 -122 c0 -5 -21 -11 -47
-13 -39 -3 -48 0 -48 13 0 13 9 16 48 13 26 -2 47 -7 47 -13z m115 -95 c0 -18
-7 -20 -75 -20 -56 0 -75 3 -75 13 0 23 11 27 82 27 61 0 68 -2 68 -20z m-2
-97 c-3 -15 -15 -18 -73 -18 -58 0 -70 3 -73 18 -3 15 6 17 73 17 67 0 76 -2
73 -17z m2 -98 c0 -12 -17 -15 -95 -15 -78 0 -95 3 -95 15 0 12 17 15 95 15
78 0 95 -3 95 -15z"/>
<path d="M460 526 c0 -19 7 -42 16 -50 15 -16 84 -23 84 -9 0 10 -82 93 -92
93 -4 0 -8 -15 -8 -34z"/>
<path d="M114 416 c-100 -44 -98 -170 4 -213 44 -18 91 -4 127 38 49 59 24
144 -51 175 -40 17 -41 17 -80 0z"/>
<path d="M80 103 c0 -71 11 -79 50 -38 l24 25 26 -25 c41 -39 50 -33 50 38 l0
62 -75 0 -75 0 0 -62z"/>
</g>
</svg>
