<svg width="102" height="76" viewBox="0 0 102 76" fill="none" xmlns="http://www.w3.org/2000/svg">
<g filter="url(#filter0_d_603_18)">
<path d="M20.5333 1.45342C20 2.78675 19.8667 9.58676 20.1333 16.7868C20.5333 29.0534 20.8 30.2534 25.0667 36.2534C30.8 44.6534 36.4 47.0534 47.4667 46.1201C57.8667 45.3201 61.3333 43.0534 66.5333 34.1201C70.1333 27.7201 70.5333 26.1201 70.5333 14.2534C70.5333 0.386755 69.0667 -3.07991 66.4 4.78675C65.6 7.58675 64 11.4534 63.0667 13.4534L61.2 17.0534L55.4667 14.5201C48.2667 11.1868 42 11.1868 34.8 14.5201L29.0667 17.1868L26.4 10.7868C24.9333 7.32009 23.2 3.32009 22.5333 1.85342C21.6 -0.54658 21.3333 -0.54658 20.5333 1.45342ZM54.1333 20.6534C55.2 23.5868 52 25.1868 48.2667 23.4534C46.1333 22.5201 44.2667 22.5201 42.1333 23.4534C38.4 25.1868 35.2 23.5868 36.2667 20.6534C37.4667 17.5868 52.9333 17.5868 54.1333 20.6534Z" fill="black"/>
</g>
<g filter="url(#filter1_d_603_18)">
<path d="M94.9056 51.9994C94.6126 52.0504 91.234 49.713 87.316 46.7257C83.4469 43.7794 80.1657 41.3258 80.0193 41.4009C79.9216 41.4179 79.4351 42.0979 79.0469 42.9591C78.3669 44.2679 78.5638 44.7296 80.7682 46.5773C85.1281 50.2316 88.9944 52.2856 89.6759 51.4725C90.0654 51.0078 90.8963 51.111 91.5822 51.6858C92.268 52.2606 92.6608 52.8866 92.4174 53.1769C91.6385 54.1062 81.8807 60.3516 76.9958 60.7068C72.1596 61.004 71.1256 64.9493 71.5708 66.7068C72.1641 68.984 84.3769 60.0833 90.9135 56.6628C93.4987 55.27 95.2562 54.7653 95.7951 55.2169C96.2849 55.6275 97.0672 55.7888 97.5552 55.6045C98.0919 55.3622 97.9934 55.0818 97.1128 54.7393C96.3792 54.52 95.8888 53.9111 95.9849 53.3984C96.1774 52.4721 95.687 51.8632 94.9056 51.9994Z" fill="black"/>
</g>
<path d="M73.7083 64.4005C72.4419 64.2566 74.6067 62.0777 75.6194 62.4032C76.1523 62.6046 76.0609 63.2356 75.3475 63.7267C74.5448 64.2792 73.7083 64.4005 73.7083 64.4005Z" fill="#D9D9D9"/>
<g filter="url(#filter2_d_603_18)">
<path d="M10.804 52.904C10.748 52.932 10.748 52.96 10.804 52.988C11.6533 53.436 12.078 54.1827 12.078 55.228C12.078 56.1613 11.756 56.8567 11.112 57.314C10.468 57.7713 9.62333 58 8.578 58H4.854C4.80733 58 4.76533 57.986 4.728 57.958C4.7 57.9207 4.686 57.8787 4.686 57.832V48.368C4.686 48.3213 4.7 48.284 4.728 48.256C4.76533 48.2187 4.80733 48.2 4.854 48.2H8.466C9.60467 48.2 10.4633 48.4147 11.042 48.844C11.63 49.2733 11.924 49.9687 11.924 50.93C11.924 51.8447 11.5507 52.5027 10.804 52.904ZM7.08 50.188C7.03333 50.188 7.01 50.2113 7.01 50.258V52.022C7.01 52.0687 7.03333 52.092 7.08 52.092H8.466C8.84867 52.092 9.14267 52.0127 9.348 51.854C9.55333 51.686 9.656 51.4527 9.656 51.154C9.656 50.846 9.55333 50.608 9.348 50.44C9.14267 50.272 8.84867 50.188 8.466 50.188H7.08ZM8.578 55.998C8.95133 55.998 9.24067 55.914 9.446 55.746C9.65133 55.5687 9.754 55.3167 9.754 54.99C9.754 54.6727 9.65133 54.43 9.446 54.262C9.25 54.0847 8.96067 53.996 8.578 53.996H7.08C7.03333 53.996 7.01 54.0193 7.01 54.066V55.928C7.01 55.9747 7.03333 55.998 7.08 55.998H8.578ZM19.8231 58C19.7204 58 19.6551 57.9533 19.6271 57.86L19.2631 56.614C19.2444 56.5767 19.2211 56.558 19.1931 56.558H16.0011C15.9731 56.558 15.9497 56.5767 15.9311 56.614L15.5671 57.86C15.5391 57.9533 15.4737 58 15.3711 58H13.2291C13.1731 58 13.1311 57.986 13.1031 57.958C13.0751 57.9207 13.0704 57.8693 13.0891 57.804L16.0851 48.34C16.1131 48.2467 16.1737 48.2 16.2671 48.2H18.9131C19.0064 48.2 19.0671 48.2467 19.0951 48.34L22.1051 57.804C22.1144 57.8227 22.1191 57.846 22.1191 57.874C22.1191 57.958 22.0677 58 21.9651 58H19.8231ZM16.4911 54.682C16.4817 54.738 16.5004 54.766 16.5471 54.766H18.6331C18.6891 54.766 18.7077 54.738 18.6891 54.682L17.6251 51.084C17.6157 51.0467 17.6017 51.0327 17.5831 51.042C17.5644 51.042 17.5504 51.056 17.5411 51.084L16.4911 54.682ZM29.0958 58C29.0024 58 28.9371 57.958 28.8998 57.874L27.2478 54.15C27.2291 54.1127 27.2011 54.094 27.1638 54.094H26.2398C26.1931 54.094 26.1698 54.1173 26.1698 54.164V57.832C26.1698 57.8787 26.1511 57.9207 26.1138 57.958C26.0858 57.986 26.0484 58 26.0018 58H24.0138C23.9671 58 23.9251 57.986 23.8878 57.958C23.8598 57.9207 23.8458 57.8787 23.8458 57.832V48.368C23.8458 48.3213 23.8598 48.284 23.8878 48.256C23.9251 48.2187 23.9671 48.2 24.0138 48.2H28.1718C28.7878 48.2 29.3291 48.326 29.7958 48.578C30.2624 48.83 30.6218 49.1893 30.8738 49.656C31.1351 50.1133 31.2658 50.6407 31.2658 51.238C31.2658 51.8633 31.1118 52.4047 30.8038 52.862C30.4958 53.3193 30.0664 53.6507 29.5158 53.856C29.4691 53.8747 29.4551 53.9073 29.4738 53.954L31.3218 57.804C31.3404 57.8413 31.3498 57.8693 31.3498 57.888C31.3498 57.9627 31.2984 58 31.1958 58H29.0958ZM26.2398 50.188C26.1931 50.188 26.1698 50.2113 26.1698 50.258V52.246C26.1698 52.2927 26.1931 52.316 26.2398 52.316H27.7938C28.1391 52.316 28.4191 52.2227 28.6338 52.036C28.8484 51.84 28.9558 51.5833 28.9558 51.266C28.9558 50.9393 28.8484 50.678 28.6338 50.482C28.4191 50.286 28.1391 50.188 27.7938 50.188H26.2398ZM39.2634 52.904C39.2074 52.932 39.2074 52.96 39.2634 52.988C40.1127 53.436 40.5374 54.1827 40.5374 55.228C40.5374 56.1613 40.2154 56.8567 39.5714 57.314C38.9274 57.7713 38.0827 58 37.0374 58H33.3134C33.2667 58 33.2247 57.986 33.1874 57.958C33.1594 57.9207 33.1454 57.8787 33.1454 57.832V48.368C33.1454 48.3213 33.1594 48.284 33.1874 48.256C33.2247 48.2187 33.2667 48.2 33.3134 48.2H36.9254C38.064 48.2 38.9227 48.4147 39.5014 48.844C40.0894 49.2733 40.3834 49.9687 40.3834 50.93C40.3834 51.8447 40.01 52.5027 39.2634 52.904ZM35.5394 50.188C35.4927 50.188 35.4694 50.2113 35.4694 50.258V52.022C35.4694 52.0687 35.4927 52.092 35.5394 52.092H36.9254C37.308 52.092 37.602 52.0127 37.8074 51.854C38.0127 51.686 38.1154 51.4527 38.1154 51.154C38.1154 50.846 38.0127 50.608 37.8074 50.44C37.602 50.272 37.308 50.188 36.9254 50.188H35.5394ZM37.0374 55.998C37.4107 55.998 37.7 55.914 37.9054 55.746C38.1107 55.5687 38.2134 55.3167 38.2134 54.99C38.2134 54.6727 38.1107 54.43 37.9054 54.262C37.7094 54.0847 37.42 53.996 37.0374 53.996H35.5394C35.4927 53.996 35.4694 54.0193 35.4694 54.066V55.928C35.4694 55.9747 35.4927 55.998 35.5394 55.998H37.0374ZM49.444 50.02C49.444 50.0667 49.4253 50.1087 49.388 50.146C49.36 50.174 49.3227 50.188 49.276 50.188H44.88C44.8333 50.188 44.81 50.2113 44.81 50.258V51.98C44.81 52.0267 44.8333 52.05 44.88 52.05H47.694C47.7407 52.05 47.778 52.0687 47.806 52.106C47.8433 52.134 47.862 52.1713 47.862 52.218V53.856C47.862 53.9027 47.8433 53.9447 47.806 53.982C47.778 54.01 47.7407 54.024 47.694 54.024H44.88C44.8333 54.024 44.81 54.0473 44.81 54.094V55.942C44.81 55.9887 44.8333 56.012 44.88 56.012H49.276C49.3227 56.012 49.36 56.0307 49.388 56.068C49.4253 56.096 49.444 56.1333 49.444 56.18V57.832C49.444 57.8787 49.4253 57.9207 49.388 57.958C49.36 57.986 49.3227 58 49.276 58H42.654C42.6073 58 42.5653 57.986 42.528 57.958C42.5 57.9207 42.486 57.8787 42.486 57.832V48.368C42.486 48.3213 42.5 48.284 42.528 48.256C42.5653 48.2187 42.6073 48.2 42.654 48.2H49.276C49.3227 48.2 49.36 48.2187 49.388 48.256C49.4253 48.284 49.444 48.3213 49.444 48.368V50.02ZM57.6641 58C57.5614 58 57.4961 57.9533 57.4681 57.86L57.1041 56.614C57.0854 56.5767 57.0621 56.558 57.0341 56.558H53.8421C53.8141 56.558 53.7907 56.5767 53.7721 56.614L53.4081 57.86C53.3801 57.9533 53.3147 58 53.2121 58H51.0701C51.0141 58 50.9721 57.986 50.9441 57.958C50.9161 57.9207 50.9114 57.8693 50.9301 57.804L53.9261 48.34C53.9541 48.2467 54.0147 48.2 54.1081 48.2H56.7541C56.8474 48.2 56.9081 48.2467 56.9361 48.34L59.9461 57.804C59.9554 57.8227 59.9601 57.846 59.9601 57.874C59.9601 57.958 59.9087 58 59.8061 58H57.6641ZM54.3321 54.682C54.3227 54.738 54.3414 54.766 54.3881 54.766H56.4741C56.5301 54.766 56.5487 54.738 56.5301 54.682L55.4661 51.084C55.4567 51.0467 55.4427 51.0327 55.4241 51.042C55.4054 51.042 55.3914 51.056 55.3821 51.084L54.3321 54.682ZM66.9368 58C66.8434 58 66.7781 57.958 66.7408 57.874L65.0888 54.15C65.0701 54.1127 65.0421 54.094 65.0048 54.094H64.0808C64.0341 54.094 64.0108 54.1173 64.0108 54.164V57.832C64.0108 57.8787 63.9921 57.9207 63.9548 57.958C63.9268 57.986 63.8894 58 63.8428 58H61.8548C61.8081 58 61.7661 57.986 61.7288 57.958C61.7008 57.9207 61.6868 57.8787 61.6868 57.832V48.368C61.6868 48.3213 61.7008 48.284 61.7288 48.256C61.7661 48.2187 61.8081 48.2 61.8548 48.2H66.0128C66.6288 48.2 67.1701 48.326 67.6368 48.578C68.1034 48.83 68.4628 49.1893 68.7148 49.656C68.9761 50.1133 69.1068 50.6407 69.1068 51.238C69.1068 51.8633 68.9528 52.4047 68.6448 52.862C68.3368 53.3193 67.9074 53.6507 67.3568 53.856C67.3101 53.8747 67.2961 53.9073 67.3148 53.954L69.1628 57.804C69.1814 57.8413 69.1908 57.8693 69.1908 57.888C69.1908 57.9627 69.1394 58 69.0368 58H66.9368ZM64.0808 50.188C64.0341 50.188 64.0108 50.2113 64.0108 50.258V52.246C64.0108 52.2927 64.0341 52.316 64.0808 52.316H65.6348C65.9801 52.316 66.2601 52.2227 66.4748 52.036C66.6894 51.84 66.7968 51.5833 66.7968 51.266C66.7968 50.9393 66.6894 50.678 66.4748 50.482C66.2601 50.286 65.9801 50.188 65.6348 50.188H64.0808ZM71.1544 58C71.1077 58 71.0657 57.986 71.0284 57.958C71.0004 57.9207 70.9864 57.8787 70.9864 57.832V48.368C70.9864 48.3213 71.0004 48.284 71.0284 48.256C71.0657 48.2187 71.1077 48.2 71.1544 48.2H73.1424C73.1891 48.2 73.2264 48.2187 73.2544 48.256C73.2917 48.284 73.3104 48.3213 73.3104 48.368V57.832C73.3104 57.8787 73.2917 57.9207 73.2544 57.958C73.2264 57.986 73.1891 58 73.1424 58H71.1544ZM81.7895 58C81.6868 58 81.6215 57.9533 81.5935 57.86L81.2295 56.614C81.2108 56.5767 81.1875 56.558 81.1595 56.558H77.9675C77.9395 56.558 77.9161 56.5767 77.8975 56.614L77.5335 57.86C77.5055 57.9533 77.4401 58 77.3375 58H75.1955C75.1395 58 75.0975 57.986 75.0695 57.958C75.0415 57.9207 75.0368 57.8693 75.0555 57.804L78.0515 48.34C78.0795 48.2467 78.1401 48.2 78.2335 48.2H80.8795C80.9728 48.2 81.0335 48.2467 81.0615 48.34L84.0715 57.804C84.0808 57.8227 84.0855 57.846 84.0855 57.874C84.0855 57.958 84.0341 58 83.9315 58H81.7895ZM78.4575 54.682C78.4481 54.738 78.4668 54.766 78.5135 54.766H80.5995C80.6555 54.766 80.6741 54.738 80.6555 54.682L79.5915 51.084C79.5821 51.0467 79.5681 51.0327 79.5495 51.042C79.5308 51.042 79.5168 51.056 79.5075 51.084L78.4575 54.682Z" fill="black"/>
</g>
<defs>
<filter id="filter0_d_603_18" x="16" y="0" width="58.5333" height="54.3093" filterUnits="userSpaceOnUse" color-interpolation-filters="sRGB">
<feFlood flood-opacity="0" result="BackgroundImageFix"/>
<feColorMatrix in="SourceAlpha" type="matrix" values="0 0 0 0 0 0 0 0 0 0 0 0 0 0 0 0 0 0 127 0" result="hardAlpha"/>
<feOffset dy="4"/>
<feGaussianBlur stdDeviation="2"/>
<feComposite in2="hardAlpha" operator="out"/>
<feColorMatrix type="matrix" values="0 0 0 0 0 0 0 0 0 0 0 0 0 0 0 0 0 0 0.25 0"/>
<feBlend mode="normal" in2="BackgroundImageFix" result="effect1_dropShadow_603_18"/>
<feBlend mode="normal" in="SourceGraphic" in2="effect1_dropShadow_603_18" result="shape"/>
</filter>
<filter id="filter1_d_603_18" x="67.4771" y="41.3992" width="34.408" height="33.6755" filterUnits="userSpaceOnUse" color-interpolation-filters="sRGB">
<feFlood flood-opacity="0" result="BackgroundImageFix"/>
<feColorMatrix in="SourceAlpha" type="matrix" values="0 0 0 0 0 0 0 0 0 0 0 0 0 0 0 0 0 0 127 0" result="hardAlpha"/>
<feOffset dy="4"/>
<feGaussianBlur stdDeviation="2"/>
<feComposite in2="hardAlpha" operator="out"/>
<feColorMatrix type="matrix" values="0 0 0 0 0 0 0 0 0 0 0 0 0 0 0 0 0 0 0.25 0"/>
<feBlend mode="normal" in2="BackgroundImageFix" result="effect1_dropShadow_603_18"/>
<feBlend mode="normal" in="SourceGraphic" in2="effect1_dropShadow_603_18" result="shape"/>
</filter>
<filter id="filter2_d_603_18" x="0.686035" y="48.2" width="87.3994" height="17.8" filterUnits="userSpaceOnUse" color-interpolation-filters="sRGB">
<feFlood flood-opacity="0" result="BackgroundImageFix"/>
<feColorMatrix in="SourceAlpha" type="matrix" values="0 0 0 0 0 0 0 0 0 0 0 0 0 0 0 0 0 0 127 0" result="hardAlpha"/>
<feOffset dy="4"/>
<feGaussianBlur stdDeviation="2"/>
<feComposite in2="hardAlpha" operator="out"/>
<feColorMatrix type="matrix" values="0 0 0 0 0 0 0 0 0 0 0 0 0 0 0 0 0 0 0.25 0"/>
<feBlend mode="normal" in2="BackgroundImageFix" result="effect1_dropShadow_603_18"/>
<feBlend mode="normal" in="SourceGraphic" in2="effect1_dropShadow_603_18" result="shape"/>
</filter>
</defs>
</svg>
