<?xml version="1.0" standalone="no"?>
<!DOCTYPE svg PUBLIC "-//W3C//DTD SVG 20010904//EN"
 "http://www.w3.org/TR/2001/REC-SVG-20010904/DTD/svg10.dtd">
<svg version="1.0" xmlns="http://www.w3.org/2000/svg"
 width="64.000000pt" height="64.000000pt" viewBox="0 0 64.000000 64.000000"
 preserveAspectRatio="xMidYMid meet">

<g transform="translate(0.000000,64.000000) scale(0.100000,-0.100000)"
fill="#000000" stroke="none">
<path d="M262 578 c-90 -20 -151 -116 -136 -213 6 -46 24 -53 24 -9 0 37 27
94 44 94 9 0 30 -9 48 -20 45 -27 119 -27 170 2 51 29 70 18 83 -50 14 -70 22
-73 30 -9 13 100 -46 183 -145 206 -52 12 -60 12 -118 -1z"/>
<path d="M150 239 c0 -94 14 -115 105 -160 71 -35 78 -34 163 14 74 41 84 59
80 148 -3 74 -8 72 -24 -8 -7 -35 -45 -53 -119 -58 -120 -8 -185 21 -185 84 0
14 -5 33 -10 41 -7 10 -10 -8 -10 -61z"/>
<path d="M277 259 c-11 -6 -33 -8 -53 -5 -38 8 -41 1 -18 -32 17 -25 81 -31
102 -10 10 10 17 10 32 0 48 -29 120 -4 120 43 0 14 -3 15 -15 5 -9 -8 -27
-10 -47 -6 -69 15 -104 16 -121 5z"/>
</g>
</svg>
