<?xml version="1.0" standalone="no"?>
<!DOCTYPE svg PUBLIC "-//W3C//DTD SVG 20010904//EN"
 "http://www.w3.org/TR/2001/REC-SVG-20010904/DTD/svg10.dtd">
<svg version="1.0" xmlns="http://www.w3.org/2000/svg"
 width="64.000000pt" height="39.000000pt" viewBox="0 0 64.000000 39.000000"
 preserveAspectRatio="xMidYMid meet">

<g transform="translate(0.000000,39.000000) scale(0.100000,-0.100000)"
fill="#000000" stroke="none">
<path d="M350 370 c0 -17 7 -20 40 -20 33 0 40 3 40 20 0 17 -7 20 -40 20 -33
0 -40 -3 -40 -20z"/>
<path d="M327 324 c-15 -15 8 -24 64 -24 44 0 60 3 57 13 -5 13 -109 23 -121
11z"/>
<path d="M350 256 c0 -8 -15 -25 -32 -37 -18 -13 -36 -28 -40 -34 -12 -17 -9
-110 4 -123 16 -16 200 -16 216 0 13 13 16 106 4 123 -4 6 -22 21 -39 34 -18
12 -33 29 -33 37 0 10 -12 14 -40 14 -28 0 -40 -4 -40 -14z"/>
<path d="M151 74 c-25 -31 -25 -35 -8 -59 29 -39 107 16 92 65 -10 30 -58 27
-84 -6z"/>
<path d="M270 15 c0 -12 20 -15 120 -15 100 0 120 3 120 15 0 13 -20 15 -120
15 -100 0 -120 -2 -120 -15z"/>
</g>
</svg>
