<?xml version="1.0" standalone="no"?>
<!DOCTYPE svg PUBLIC "-//W3C//DTD SVG 20010904//EN"
 "http://www.w3.org/TR/2001/REC-SVG-20010904/DTD/svg10.dtd">
<svg version="1.0" xmlns="http://www.w3.org/2000/svg"
 width="64.000000pt" height="64.000000pt" viewBox="0 0 64.000000 64.000000"
 preserveAspectRatio="xMidYMid meet">

<g transform="translate(0.000000,64.000000) scale(0.100000,-0.100000)"
fill="#000000" stroke="none">
<path d="M192 556 l-113 -41 3 -135 c3 -116 7 -141 26 -177 30 -57 84 -108
149 -139 48 -24 58 -26 92 -16 64 20 144 84 176 144 28 50 30 60 33 188 l3
135 -119 43 c-66 23 -124 41 -129 41 -4 -1 -59 -20 -121 -43z m174 -255 l-86
-86 -45 45 c-35 34 -42 47 -33 57 9 11 17 8 45 -19 l33 -32 72 71 c57 57 75
70 86 61 11 -9 -3 -28 -72 -97z"/>
</g>
</svg>
